<?xml version="1.0" encoding="UTF-8"?>
<svg version="1.1" xmlns="http://www.w3.org/2000/svg" width="1500" height="1500">
<path d="M0 0 C1.81772919 -0.00415421 1.81772919 -0.00415421 3.67218018 -0.00839233 C10.44718515 -0.01973178 17.21822731 0.02476437 23.99255371 0.11801147 C26.70758926 0.12445441 29.40042279 0.03905035 32.11230469 -0.08081055 C42.28461352 -0.35468785 42.28461352 -0.35468785 46.4934082 3.41308594 C48.72753571 6.66224846 50.42693367 9.99310885 52.0625 13.5625 C52.70990973 14.84269894 53.36435114 16.1193635 54.02539062 17.39257812 C55.37797881 20.01055819 56.69973646 22.64081464 58.00097656 25.28466797 C60.87105077 31.05490442 64.16702072 36.57531692 67.4375 42.125 C68.679401 44.26949282 69.91896867 46.41533852 71.15625 48.5625 C71.775 49.635 72.39375 50.7075 73.03125 51.8125 C76.68509308 58.16180109 80.31320804 64.52580338 83.94372559 70.88845825 C89.45459546 80.54520462 95.00007551 90.18161902 100.56323242 99.80834961 C104.48020365 106.5893428 108.37338681 113.38336682 112.25 120.1875 C115.68495154 126.21442185 119.15343614 132.2181742 122.6875 138.1875 C127.43059512 146.20276726 132.04784574 154.28899249 136.66101074 162.37942505 C141.56244386 170.97532272 146.48628317 179.55763011 151.4375 188.125 C153.2908649 191.33630021 155.14363841 194.54794065 156.99609375 197.75976562 C158.34169689 200.09223465 159.68804027 202.42426484 161.03515625 204.75585938 C162.82723042 207.85860061 164.61474836 210.96393311 166.3996582 214.07080078 C167.39589176 215.80266762 168.39610241 217.53224485 169.39648438 219.26171875 C185.50085824 247.33172584 185.50085824 247.33172584 182.51171875 262.25 C180.728055 267.15233963 177.24306805 270.40090021 172.9375 273.125 C169.99662392 274.4191869 167.05528656 275.3593245 163.9375 276.125 C163.23614674 276.29840996 162.53479349 276.47181992 161.8121871 276.65048472 C158.1114854 277.26134755 154.4705089 277.2669235 150.73156887 277.2602132 C149.90372188 277.26268263 149.07587488 277.26515207 148.22294161 277.26769634 C145.43130023 277.27479812 142.63970372 277.27478383 139.84805393 277.27483845 C137.82481466 277.27849808 135.80157613 277.28259209 133.77833852 277.2870827 C128.18401106 277.29821593 122.5896925 277.30310178 116.99535595 277.30701085 C110.92222344 277.31232835 104.84910091 277.32335451 98.77597517 277.33365077 C88.12056384 277.35090062 77.46515347 277.36441554 66.80973434 277.37541389 C55.3739567 277.38722694 43.93818464 277.40116105 32.5024128 277.41768265 C31.78070226 277.4187232 31.05899173 277.41976376 30.31541118 277.42083584 C27.37610035 277.42507824 24.43678953 277.42933187 21.49747874 277.43360082 C-14.14362403 277.48532245 -49.7847366 277.52635734 -85.42585504 277.56550932 C-96.98072924 277.5782184 -108.53560289 277.59135946 -120.09047627 277.6047914 C-120.90548284 277.60573865 -121.7204894 277.60668589 -122.56019314 277.60766184 C-125.85732372 277.61149516 -129.1544543 277.61533059 -132.45158488 277.61916869 C-188.84471046 277.68479777 -245.23783853 277.74783649 -301.63097546 277.80293684 C-306.06075786 277.8072666 -310.49054024 277.81160969 -314.92032263 277.81595192 C-315.79905971 277.81681312 -316.67779679 277.81767431 -317.58316226 277.8185616 C-326.4861582 277.82728754 -335.38915414 277.83602504 -344.29215006 277.84478022 C-346.0772409 277.84653501 -347.86233174 277.84828842 -349.64742259 277.85004046 C-406.99905229 277.90633218 -464.35064919 277.97722739 -521.70224906 278.05822419 C-562.90892585 278.11641191 -604.11560008 278.17281265 -645.3222971 278.21475506 C-646.59281005 278.21604949 -646.59281005 278.21604949 -647.88898993 278.21737007 C-666.48075429 278.23626918 -685.07251958 278.25403382 -703.66428603 278.2707381 C-711.14433514 278.27747446 -718.62438412 278.28435122 -726.10443306 278.29126549 C-727.33242 278.29239436 -727.33242 278.29239436 -728.58521475 278.29354603 C-754.9785273 278.31787096 -781.37180531 278.35444713 -807.76509378 278.39727507 C-834.33973605 278.4403242 -860.91436103 278.47072377 -887.48903597 278.48361303 C-891.15802796 278.48539442 -894.82701986 278.48731651 -898.49601173 278.48932266 C-899.21525974 278.48971056 -899.93450774 278.49009846 -900.67555113 278.49049811 C-912.08206291 278.49701776 -923.48850993 278.51702295 -934.89499322 278.54259725 C-946.1004972 278.56744302 -957.30594014 278.57776098 -968.51147764 278.57347097 C-974.51008782 278.571591 -980.50850812 278.57619243 -986.5070821 278.59825668 C-991.95709439 278.61817829 -997.40678779 278.61988694 -1002.85681767 278.60666183 C-1004.8229363 278.6051532 -1006.78907407 278.61045238 -1008.75515226 278.62315472 C-1011.41423806 278.63936942 -1014.07215058 278.63109747 -1016.73121971 278.61653262 C-1017.49613165 278.62710925 -1018.2610436 278.63768588 -1019.04913469 278.64858301 C-1024.37104423 278.58170278 -1027.10018891 277.47199413 -1031.0625 274.125 C-1031.0625 273.465 -1031.0625 272.805 -1031.0625 272.125 C-1031.7225 271.795 -1032.3825 271.465 -1033.0625 271.125 C-1033.87890625 269.26953125 -1033.87890625 269.26953125 -1034.625 266.9375 C-1034.87378906 266.18082031 -1035.12257813 265.42414063 -1035.37890625 264.64453125 C-1040.16076274 247.01997448 -1038.80630917 221.42829836 -1030.0625 205.125 C-1025.57396886 197.73760354 -1019.15957558 195.72751314 -1011.25 193.0625 C-1009.93087977 192.6011532 -1008.61237433 192.13804542 -1007.29443359 191.67333984 C-1003.66714255 190.40133255 -1000.03044707 189.15843111 -996.39141846 187.92047119 C-993.20566929 186.83233877 -990.02614955 185.72655221 -986.8462677 184.62141418 C-925.40869135 163.28246793 -863.19242605 144.34377994 -800.75 126.1875 C-800.03135773 125.977836 -799.31271545 125.768172 -798.57229614 125.55215454 C-786.99821526 122.17967357 -775.3675774 119.03138545 -763.72290039 115.91235352 C-757.51614606 114.24953426 -751.31606846 112.56298286 -745.1171875 110.87109375 C-713.20578862 102.18097479 -681.18516273 93.99649195 -649.0625 86.125 C-647.99555908 85.86309875 -646.92861816 85.60119751 -645.8293457 85.33135986 C-590.67469715 71.79810244 -535.27733758 59.69030709 -479.54571533 48.80731201 C-475.44512173 48.00406444 -471.34668199 47.19026626 -467.24839783 46.37533569 C-411.57411155 35.32490168 -355.19638715 26.82431484 -298.79833984 20.43621826 C-295.67119409 20.0804866 -292.54457863 19.72027417 -289.41796875 19.35986328 C-214.13683293 10.69728758 -138.7736409 4.53175867 -63.0625 1.125 C-61.78514984 1.06699219 -61.78514984 1.06699219 -60.48199463 1.0078125 C-40.32654662 0.10347853 -20.17273978 0.03044291 0 0 Z " fill="#DF4D16" transform="translate(1427.0625,845.875)"/>
<path d="M0 0 C1.73242188 1.90161133 1.73242188 1.90161133 3.46875 4.58203125 C4.11610107 5.5671167 4.76345215 6.55220215 5.43041992 7.56713867 C6.11338135 8.63810791 6.79634277 9.70907715 7.5 10.8125 C8.567948 12.45279175 8.567948 12.45279175 9.6574707 14.1262207 C11.78733016 17.40769161 13.89657924 20.70153482 16 24 C16.56380371 24.87881836 17.12760742 25.75763672 17.70849609 26.66308594 C20.68420145 31.30484953 23.62199195 35.96884715 26.53466797 40.65039062 C28.03670465 43.05885464 29.55089184 45.45937296 31.06640625 47.859375 C44.0161266 68.45883741 55.91401968 89.69419917 67.44433594 111.11523438 C69.11395162 114.21130765 70.79520603 117.30091344 72.4765625 120.390625 C85.85361817 145.06235807 98.5994093 170.06767835 109.98291016 195.7265625 C111.55158712 199.23292829 113.17981928 202.71059373 114.8125 206.1875 C115.62654297 207.93353516 115.62654297 207.93353516 116.45703125 209.71484375 C117.48356832 211.90045811 118.52261409 214.08024203 119.57421875 216.25390625 C120.04472656 217.24261719 120.51523438 218.23132813 121 219.25 C121.61875 220.52617187 121.61875 220.52617187 122.25 221.828125 C123 224 123 224 122 227 C121.44538086 227.08564209 120.89076172 227.17128418 120.31933594 227.25952148 C117.79592464 227.65027558 115.27296253 228.04385926 112.75 228.4375 C111.87730469 228.57220703 111.00460937 228.70691406 110.10546875 228.84570312 C109.26113281 228.97783203 108.41679688 229.10996094 107.546875 229.24609375 C106.38430176 229.42676392 106.38430176 229.42676392 105.19824219 229.61108398 C103.03535995 229.96534965 103.03535995 229.96534965 101.08081055 230.49072266 C98.45752668 231.13277008 95.83272394 231.51318369 93.16015625 231.90234375 C92.01353516 232.07056641 90.86691406 232.23878906 89.68554688 232.41210938 C88.48994141 232.58548828 87.29433594 232.75886719 86.0625 232.9375 C77.03576354 234.25567418 68.01452032 235.60066739 59 237 C57.31893467 237.26037169 55.63786322 237.5207038 53.95678711 237.78100586 C49.12179105 238.52997809 44.28704454 239.28054837 39.45239258 240.03173828 C37.44071598 240.34418429 35.42899712 240.6563583 33.41723633 240.96826172 C15.99295057 243.05369416 15.99295057 243.05369416 -1 247 C-4.37583665 247.43289285 -7.75220907 247.80633368 -11.13671875 248.16210938 C-16.19783348 248.72092186 -21.16946953 249.54299263 -26.17382812 250.48022461 C-30.85252762 251.34070761 -35.55123504 252.07097615 -40.25 252.8125 C-42.44273378 253.16129843 -44.63544082 253.51026491 -46.828125 253.859375 C-47.98376953 254.04306641 -49.13941406 254.22675781 -50.33007812 254.41601562 C-74.46601188 258.23517101 -74.46601188 258.23517101 -98.546875 262.3828125 C-102.68978178 263.12328679 -106.8406527 263.80651685 -110.99609375 264.47265625 C-113.42748975 264.8994943 -115.83929716 265.36725167 -118.2578125 265.859375 C-122.84866589 266.78588727 -127.45088064 267.64263221 -132.05859375 268.48046875 C-132.7977301 268.61493408 -133.53686646 268.74939941 -134.29840088 268.88793945 C-135.86243643 269.17243722 -137.4264725 269.45693217 -138.99050903 269.74142456 C-157.64164181 273.14144212 -176.25131107 276.7188259 -194.81872559 280.55004883 C-196.2701532 280.84944791 -197.72173178 281.14811614 -199.17346191 281.44604492 C-219.54550428 285.62815003 -239.76201196 290.32767377 -259.9375 295.375 C-260.99754242 295.63993256 -262.05758484 295.90486511 -263.14974976 296.17782593 C-266.17238964 296.93518451 -269.19388916 297.69688686 -272.21484375 298.4609375 C-273.11632141 298.68770676 -274.01779907 298.91447601 -274.94659424 299.14811707 C-279.366659 300.27379073 -283.68005366 301.52808751 -288 303 C-289.70180269 303.45492602 -291.40911572 303.88969197 -293.12109375 304.3046875 C-322.44515389 311.57294308 -351.26619776 320.72160018 -379.72558594 330.83837891 C-382.9195062 331.97144427 -386.11916802 333.08675367 -389.3203125 334.19921875 C-404.35390926 339.46665424 -419.05202655 345.42869097 -433.72265625 351.61914062 C-436.65499523 352.85463744 -439.5916024 354.07889693 -442.53125 355.296875 C-444.14592367 355.96853287 -445.76051434 356.64039033 -447.375 357.3125 C-448.0438623 357.58908447 -448.71272461 357.86566895 -449.40185547 358.15063477 C-461.86458727 363.37925213 -473.97768501 369.40612811 -486.05371094 375.46166992 C-488.26087808 376.56795234 -490.47017359 377.6698978 -492.6796875 378.77148438 C-499.86889772 382.36538698 -506.995422 386.01376885 -513.98730469 389.98413086 C-516 391 -516 391 -518 391 C-518.33 391.66 -518.66 392.32 -519 393 C-521.08611703 394.18771626 -523.17224017 395.29280301 -525.3125 396.375 C-531.93695958 399.808629 -538.36090957 403.52218311 -544.75 407.375 C-545.61923096 407.89884277 -546.48846191 408.42268555 -547.3840332 408.96240234 C-550.62827812 410.92642003 -553.84397363 412.89598242 -557 415 C-557.99 415 -558.98 415 -560 415 C-560.33 415.66 -560.66 416.32 -561 417 C-563.31 416.67 -565.62 416.34 -568 416 C-569.20891462 410.4220255 -568.81083524 407.41981937 -566.3125 402.3125 C-565.85786377 401.37712402 -565.85786377 401.37712402 -565.39404297 400.42285156 C-561.16407494 391.97111708 -556.09902224 383.95254012 -551.10400391 375.93847656 C-549.85674457 373.89474204 -549.85674457 373.89474204 -549 371 C-548.34 371 -547.68 371 -547 371 C-546.74605469 370.29746094 -546.49210938 369.59492187 -546.23046875 368.87109375 C-544.86447447 365.68377377 -543.20102969 362.97263432 -541.3125 360.0625 C-540.93673828 359.48201904 -540.56097656 358.90153809 -540.17382812 358.3034668 C-535.56670657 351.24227796 -530.76781014 344.30690419 -525.96606445 337.37719727 C-525.33788818 336.46510498 -524.70971191 335.5530127 -524.0625 334.61328125 C-523.49660156 333.79641846 -522.93070313 332.97955566 -522.34765625 332.13793945 C-520.85214933 329.95373395 -520.85214933 329.95373395 -520 327 C-519.34 327 -518.68 327 -518 327 C-517.75121094 326.29488281 -517.50242187 325.58976562 -517.24609375 324.86328125 C-515.84395417 321.64143702 -514.09672392 319.05307041 -512.0625 316.1875 C-511.23667199 315.0132368 -510.41116424 313.83874832 -509.5859375 312.6640625 C-509.15635742 312.05594727 -508.72677734 311.44783203 -508.28417969 310.82128906 C-490.29502036 285.30814674 -472.32212417 259.23868755 -456.625 232.25 C-456.09455078 231.34137207 -455.56410156 230.43274414 -455.01757812 229.49658203 C-454.0489974 227.82338064 -453.09317432 226.14268426 -452.15429688 224.45263672 C-448.89059193 218.79222445 -445.02052027 215.11598687 -440 211 C-438.76416949 209.86820542 -437.53864177 208.72504743 -436.32421875 207.5703125 C-435.73020264 207.00763672 -435.13618652 206.44496094 -434.52416992 205.86523438 C-433.91806885 205.29095703 -433.31196777 204.71667969 -432.6875 204.125 C-426.66146431 198.46987733 -420.50469825 193.10368632 -414 188 C-413.36255859 187.49533203 -412.72511719 186.99066406 -412.06835938 186.47070312 C-390.07010535 169.06303582 -367.23370043 153.14699224 -343 139 C-342.03755371 138.43490723 -341.07510742 137.86981445 -340.08349609 137.28759766 C-327.84767396 130.11193854 -315.63639949 123.01662415 -302.83886719 116.88720703 C-300.3035755 115.66399275 -297.78775067 114.40313598 -295.27197266 113.14038086 C-293.92408296 112.46382888 -292.57573121 111.78819411 -291.22637939 111.11456299 C-287.9234562 109.46565141 -284.62362756 107.81149884 -281.33398438 106.13623047 C-271.52083053 101.15508402 -261.56879616 96.56340829 -251.5 92.125 C-250.71930145 91.77961182 -249.93860291 91.43422363 -249.13424683 91.07836914 C-229.87150633 82.55778759 -210.49453707 74.45311903 -190.77392578 67.04931641 C-186.7740521 65.5362503 -182.78833228 63.98722227 -178.80102539 62.44140625 C-154.77874928 53.14035762 -130.58219568 44.43075861 -106.20898438 36.10058594 C-100.86529285 34.26785911 -95.53483383 32.39788983 -90.20532227 30.52441406 C-86.17667875 29.10913266 -82.14516689 27.70375986 -78.10546875 26.3203125 C-63.23535744 21.21387205 -48.47861968 15.81235614 -33.72973633 10.3671875 C-26.01120948 7.52216853 -18.28677073 4.69663412 -10.5 2.04296875 C-8.75203125 1.44585083 -8.75203125 1.44585083 -6.96875 0.83666992 C-4 0 -4 0 0 0 Z " fill="#E07722" transform="translate(1165,278)"/>
<path d="M0 0 C7.33229032 6.91511944 12.11350911 16.55606619 16.84814453 25.31616211 C17.83043791 27.11240529 18.81544723 28.90714329 19.80044556 30.7019043 C20.46407557 31.91170301 21.12681864 33.12198868 21.78866577 34.33276367 C24.85656934 39.94273192 28.00063096 45.50773153 31.16064453 51.06616211 C35.86135443 59.34881294 40.49103903 67.66862907 45.09814453 76.00366211 C49.94083284 84.76204725 54.89318036 93.44334469 59.97314453 102.06616211 C64.52394898 109.79415705 68.85773781 117.58726961 72.97436523 125.55419922 C77.00372603 133.3188129 81.36627862 140.88114866 85.73095703 148.46069336 C88.78199876 153.76180393 91.75871182 159.10175616 94.71777344 164.45458984 C97.21375557 168.96717023 99.7267396 173.46966608 102.25439453 177.96459961 C103.1924292 179.63377441 103.1924292 179.63377441 104.14941406 181.33666992 C105.37808156 183.52174517 106.6081545 185.70603093 107.83984375 187.8894043 C109.46085333 190.77416603 111.06742874 193.66596841 112.66064453 196.56616211 C113.08949951 197.34507812 113.51835449 198.12399414 113.96020508 198.92651367 C116.85259165 204.39718724 117.38357911 207.71023564 115.66064453 213.56616211 C112.82217428 220.75432519 107.56417591 224.46548894 100.66064453 227.56616211 C96.78594558 228.42078865 92.99435037 228.57768519 89.03564453 228.69116211 C86.74748376 228.80999071 84.45972117 228.93667484 82.17236328 229.07006836 C80.96370605 229.13983887 79.75504883 229.20960938 78.50976562 229.28149414 C70.91665588 229.84305484 63.37911756 230.89306499 55.83392334 231.89654541 C48.19810841 232.91135886 40.59861624 233.78090181 32.91430664 234.32226562 C27.04721666 234.76206625 21.19936831 235.39187196 15.34814453 236.00366211 C14.15769531 236.12547852 12.96724609 236.24729492 11.74072266 236.37280273 C5.5671348 237.01374004 -0.59308733 237.71440755 -6.74951172 238.50366211 C-18.70401569 240.03281609 -30.69882388 241.21503219 -42.68505859 242.46435547 C-45.80175385 242.78976393 -48.91821596 243.11733979 -52.03466797 243.44506836 C-53.45502853 243.59196861 -53.45502853 243.59196861 -54.90408325 243.74183655 C-59.41652966 244.21686454 -63.86401798 244.81115902 -68.33935547 245.56616211 C-70.15920772 245.72238056 -71.98118139 245.85504916 -73.80419922 245.96850586 C-79.90031001 246.41055391 -85.95926743 247.05655993 -92.03076172 247.75756836 C-92.98977386 247.86765228 -93.94878601 247.97773621 -94.93685913 248.09115601 C-98.93248789 248.55117919 -102.92777772 249.01378219 -106.92211914 249.48486328 C-137.58550858 253.08923957 -137.58550858 253.08923957 -145.69482422 247.17163086 C-147.33935547 245.56616211 -147.33935547 245.56616211 -148.33935547 242.56616211 C-148.99935547 242.56616211 -149.65935547 242.56616211 -150.33935547 242.56616211 C-151.63135552 240.12883833 -152.92300886 237.6913321 -154.21435547 235.25366211 C-154.61493164 234.49762695 -155.01550781 233.7415918 -155.42822266 232.96264648 C-157.62177832 228.81982906 -159.80968489 224.67415543 -161.98779297 220.52319336 C-162.42236816 219.69537354 -162.85694336 218.86755371 -163.3046875 218.01464844 C-164.13731084 216.42772721 -164.96907093 214.84035263 -165.79980469 213.25244141 C-168.56759512 207.97852381 -171.42726417 202.76166763 -174.33935547 197.56616211 C-175.44691497 195.58889211 -176.55170755 193.61006547 -177.65185547 191.62866211 C-178.16361328 190.71213867 -178.67537109 189.79561523 -179.20263672 188.85131836 C-180.33935547 186.56616211 -180.33935547 186.56616211 -180.33935547 184.56616211 C-180.99935547 184.23616211 -181.65935547 183.90616211 -182.33935547 183.56616211 C-183.47136816 181.47989079 -184.50991115 179.39591805 -185.52685547 177.25366211 C-189.40395809 169.3001056 -193.52907525 161.48564847 -197.71435547 153.69116211 C-198.20186279 152.78247879 -198.20186279 152.78247879 -198.69921875 151.85543823 C-203.12512604 143.6121859 -207.59759976 135.39588397 -212.19433594 127.24633789 C-214.33939151 123.43194858 -216.35793945 119.57868498 -218.29663086 115.65551758 C-220.20899361 111.823628 -222.21678578 108.0416232 -224.21435547 104.25366211 C-224.62298828 103.47571289 -225.03162109 102.69776367 -225.45263672 101.89624023 C-228.15278399 96.76932509 -230.91176499 91.67712286 -233.69287109 86.59375 C-235.53559821 83.2053071 -237.35612306 79.80529949 -239.17138672 76.40209961 C-239.4971167 75.7918544 -239.82284668 75.18160919 -240.15844727 74.5528717 C-241.50167296 72.03591532 -242.84446982 69.51873619 -244.18481445 67.00024414 C-245.17872345 65.13332931 -246.17486242 63.26761941 -247.17138672 61.40209961 C-247.75637939 60.30430176 -248.34137207 59.20650391 -248.9440918 58.07543945 C-250.11553642 55.69852658 -250.11553642 55.69852658 -251.33935547 54.56616211 C-252.21070352 48.18042567 -251.53658245 43.50180264 -247.75341797 38.24975586 C-241.83100898 31.19848991 -233.68158553 29.32637716 -224.94091797 28.16381836 C-224.11194 28.04563751 -223.28296204 27.92745667 -222.42886353 27.80569458 C-220.59250107 27.54497246 -218.75554158 27.28843027 -216.91809082 27.03549194 C-213.8551474 26.61362044 -210.79392934 26.18072286 -207.73291016 25.74511719 C-204.25574032 25.25037963 -200.77848026 24.75637156 -197.30078125 24.2653656 C-186.9679275 22.80543116 -176.64119115 21.30527467 -166.31591797 19.79272461 C-165.482833 19.6706879 -164.64974804 19.5486512 -163.79141808 19.42291641 C-159.4821266 18.79148214 -155.17291247 18.15952186 -150.86373901 17.52728271 C-145.57199148 16.75094723 -140.28003821 15.97602092 -134.98803711 15.20141602 C-125.29652147 13.78278254 -115.60514118 12.36322682 -105.91381073 10.94332886 C-103.36720997 10.57024289 -100.82059979 10.19722134 -98.27398682 9.82421875 C-88.77737875 8.43319611 -79.280952 7.04094604 -69.78479004 5.6468811 C-66.90538028 5.22420764 -64.02590354 4.8019953 -61.1463623 4.38021851 C-57.15974222 3.7962161 -53.17332234 3.21086733 -49.18701172 2.62475586 C-47.96515167 2.44511292 -46.74329163 2.26546997 -45.48440552 2.0803833 C-37.68375415 0.92776807 -29.89073457 -0.26595176 -22.11134338 -1.5549469 C-6.12629175 -4.15874342 -6.12629175 -4.15874342 0 0 Z " fill="#E26013" transform="translate(1326.33935546875,561.433837890625)"/>
<path d="M0 0 C2.39035862 1.21275548 4.34027414 2.59376241 6.4375 4.265625 C7.76587891 5.29429687 7.76587891 5.29429687 9.12109375 6.34375 C45.22666698 36.83929392 66.03410009 89.98941947 85.875 131.890625 C86.25845581 132.69977356 86.64191162 133.50892212 87.0369873 134.34259033 C95.43651246 152.09011326 103.48188795 169.98831915 111.4130249 187.94915771 C112.79830471 191.08144992 114.19061602 194.21059922 115.58248901 197.33996582 C116.91260222 200.33389207 118.23742166 203.33013538 119.5604248 206.32720947 C120.18138265 207.7322103 120.80399389 209.13648168 121.42834473 210.53997803 C122.28183268 212.46052921 123.12820945 214.38405368 123.97265625 216.30859375 C124.69014038 217.93317505 124.69014038 217.93317505 125.42211914 219.59057617 C126.4375 222.265625 126.4375 222.265625 126.4375 225.265625 C125.62297363 225.42381714 125.62297363 225.42381714 124.79199219 225.58520508 C122.25651393 226.07958578 119.72201821 226.5788467 117.1875 227.078125 C116.33414062 227.24376953 115.48078125 227.40941406 114.6015625 227.58007812 C108.88364752 228.71085982 103.24221459 230.03972921 97.59423828 231.4777832 C94.31224564 232.29688531 91.02137941 233.05982549 87.72265625 233.80859375 C47.44644045 242.92475664 47.44644045 242.92475664 8.4375 256.265625 C6.28221092 257.0323047 4.11992319 257.77726552 1.95703125 258.5222168 C-28.33770858 268.96392121 -57.59760615 281.50063989 -86.32128906 295.66845703 C-89.21707651 297.09541104 -92.11886412 298.50901773 -95.0234375 299.91796875 C-105.97396697 305.26672108 -116.59025346 311.12359396 -127.16015625 317.1875 C-130.76435193 319.25410507 -134.38984902 321.27119976 -138.04296875 323.25 C-143.69455197 326.31821676 -149.26127907 329.51993835 -154.8125 332.765625 C-155.83738525 333.36439453 -156.86227051 333.96316406 -157.91821289 334.58007812 C-165.31479948 338.9161836 -172.67198275 343.314675 -180 347.765625 C-181.3917041 348.60963867 -181.3917041 348.60963867 -182.81152344 349.47070312 C-187.897061 352.57493449 -192.87684382 355.78073146 -197.76977539 359.18164062 C-199.5625 360.265625 -199.5625 360.265625 -201.5625 360.265625 C-201.8925 360.925625 -202.2225 361.585625 -202.5625 362.265625 C-204.3416614 363.40288138 -206.16204281 364.47606705 -208 365.515625 C-212.12846934 367.87404401 -216.23947317 370.24998581 -220.3125 372.703125 C-221.54226563 373.44369141 -221.54226563 373.44369141 -222.796875 374.19921875 C-223.67085937 374.72708984 -223.67085937 374.72708984 -224.5625 375.265625 C-223.94020267 371.59093032 -222.91497322 368.42502829 -221.4453125 365.00390625 C-221.00960937 363.98232422 -220.57390625 362.96074219 -220.125 361.90820312 C-219.4134375 360.25981445 -219.4134375 360.25981445 -218.6875 358.578125 C-217.6689669 356.19934886 -216.65074557 353.82043922 -215.6328125 351.44140625 C-215.11493164 350.23436035 -214.59705078 349.02731445 -214.06347656 347.78369141 C-212.70998126 344.61129921 -211.37645812 341.43180474 -210.0546875 338.24609375 C-203.3714543 322.17885063 -196.22827456 306.33274611 -189.0234375 290.49414062 C-188.61971924 289.60651535 -188.21600098 288.71889008 -187.80004883 287.80436707 C-187.0403686 286.13526651 -186.27984681 284.46654862 -185.51831055 282.79829407 C-183.97269256 279.405797 -182.44149685 276.01069599 -180.98046875 272.58081055 C-179.64121764 269.44966544 -178.24465327 266.35521407 -176.8125 263.265625 C-176.29212158 262.14285156 -175.77174316 261.02007812 -175.2355957 259.86328125 C-174.68347412 258.67605469 -174.13135254 257.48882812 -173.5625 256.265625 C-173.27660004 255.65058105 -172.99070007 255.03553711 -172.69613647 254.40185547 C-164.88795346 237.61167308 -156.99840938 220.86456915 -148.55786133 204.38085938 C-148.1636499 203.60419922 -147.76943848 202.82753906 -147.36328125 202.02734375 C-147.01434814 201.34631592 -146.66541504 200.66528809 -146.3059082 199.96362305 C-145.42881312 198.26920874 -145.42881312 198.26920874 -145.5625 196.265625 C-144.9025 196.265625 -144.2425 196.265625 -143.5625 196.265625 C-143.294375 195.42 -143.02625 194.574375 -142.75 193.703125 C-139.2657967 183.61727335 -139.2657967 183.61727335 -136.5625 182.265625 C-135.88549918 180.26909943 -135.22181173 178.26806164 -134.5625 176.265625 C-133.15379504 173.15719079 -131.60765669 170.12061351 -130.0625 167.078125 C-129.61890137 166.19882324 -129.17530273 165.31952148 -128.71826172 164.41357422 C-122.12738052 151.39710768 -115.27609253 138.52349955 -108.3125 125.703125 C-107.8292627 124.81125488 -107.34602539 123.91938477 -106.84814453 123.00048828 C-103.98053131 117.74532445 -100.99129623 112.58929786 -97.85595703 107.48901367 C-96.12062056 104.5060561 -94.81888683 101.47639134 -93.5625 98.265625 C-92.9025 98.265625 -92.2425 98.265625 -91.5625 98.265625 C-91.36785156 97.49605469 -91.17320312 96.72648437 -90.97265625 95.93359375 C-88.9709917 90.72704801 -85.99401876 86.26735783 -83 81.578125 C-81.80845197 79.70095895 -80.61952515 77.82212574 -79.43359375 75.94140625 C-78.90693115 75.11552002 -78.38026855 74.28963379 -77.83764648 73.4387207 C-76.42856001 71.209441 -76.42856001 71.209441 -75.5625 68.265625 C-74.9025 68.265625 -74.2425 68.265625 -73.5625 68.265625 C-73.29695312 67.54503906 -73.03140625 66.82445313 -72.7578125 66.08203125 C-71.54545286 63.22545837 -70.12479719 60.80470183 -68.4375 58.203125 C-67.509375 56.76839844 -67.509375 56.76839844 -66.5625 55.3046875 C-63.87132397 51.21536143 -61.15443835 47.14380662 -58.421875 43.08203125 C-56.77846548 40.59274919 -55.22115186 38.07321501 -53.6875 35.515625 C-52.98625 34.443125 -52.285 33.370625 -51.5625 32.265625 C-50.9025 32.265625 -50.2425 32.265625 -49.5625 32.265625 C-49.29050781 31.68683594 -49.01851562 31.10804687 -48.73828125 30.51171875 C-45.67348375 24.65703914 -41.26533698 19.84787642 -36.5625 15.265625 C-35.840625 14.3375 -35.11875 13.409375 -34.375 12.453125 C-25.42415169 1.47835876 -14.03358029 -4.02181874 0 0 Z " fill="#E18719" transform="translate(1008.5625,0.734375)"/>
<path d="M0 0 C-0.58841334 3.83624944 -1.71014312 6.64648902 -3.6328125 10.0078125 C-4.45954468 11.46695068 -4.45954468 11.46695068 -5.30297852 12.95556641 C-6.20487915 14.52443604 -6.20487915 14.52443604 -7.125 16.125 C-8.40815992 18.38507167 -9.69069077 20.6455006 -10.97265625 22.90625 C-11.30420212 23.48879547 -11.63574799 24.07134094 -11.9773407 24.67153931 C-15.55605448 30.96145879 -19.05856881 37.29318271 -22.5625 43.625 C-28.35317923 54.06606547 -34.20180597 64.47294917 -40.08984375 74.859375 C-41.84080436 77.94830713 -43.58563903 81.04033391 -45.31640625 84.140625 C-52.0441574 96.19055707 -59.0042517 108.10400404 -66 120 C-66.62624268 121.06516846 -66.62624268 121.06516846 -67.26513672 122.15185547 C-69.80472364 126.45850154 -72.3895086 130.73600228 -75 135 C-75.79760742 136.30590088 -75.79760742 136.30590088 -76.61132812 137.63818359 C-91.13098637 161.34220305 -106.36244852 184.43095621 -125.63037109 204.56738281 C-126.86291984 205.85661562 -128.08268045 207.1580453 -129.30078125 208.4609375 C-145.93744055 225.79712726 -167.80139154 237.37585618 -190 246 C-190.88816406 246.34675781 -191.77632812 246.69351563 -192.69140625 247.05078125 C-198.9783699 249.4209757 -205.3559094 251.30037255 -211.8359375 253.0703125 C-214.6533427 253.89814267 -217.27822518 254.90957286 -220 256 C-235.2680659 260.53915473 -250.9319787 263.93057215 -266.453125 267.4765625 C-273.03600787 268.99096919 -279.57909583 270.64675709 -286.125 272.3125 C-296.76301834 275.00066649 -307.43230006 277.46324107 -318.15527344 279.78686523 C-326.75783357 281.67097567 -335.26940173 283.8246164 -343.75708008 286.17211914 C-345.08002075 286.53164673 -345.08002075 286.53164673 -346.4296875 286.8984375 C-347.19522949 287.11161621 -347.96077148 287.32479492 -348.74951172 287.54443359 C-351.21684374 288.04389568 -353.48915385 288.078066 -356 288 C-356 288.66 -356 289.32 -356 290 C-356.62003906 290.09796875 -357.24007812 290.1959375 -357.87890625 290.296875 C-363.96938374 291.32525257 -369.88783615 292.70602031 -375.84521484 294.33374023 C-381.7586166 295.94787612 -387.69662932 297.44732145 -393.64624023 298.921875 C-398.88992018 300.22177261 -404.12844246 301.53987721 -409.36328125 302.875 C-410.62696533 303.19557373 -411.89064941 303.51614746 -413.19262695 303.84643555 C-415.69859713 304.48228832 -418.2036723 305.12168059 -420.70776367 305.76489258 C-422.43023315 306.20031372 -422.43023315 306.20031372 -424.1875 306.64453125 C-425.21230469 306.90596924 -426.23710937 307.16740723 -427.29296875 307.43676758 C-430 308 -430 308 -434 308 C-432.5984033 303.13168805 -430.41683755 299.07822587 -427.75 294.8125 C-426.93062353 293.47497882 -426.11292072 292.13643093 -425.296875 290.796875 C-424.90048828 290.14654297 -424.50410156 289.49621094 -424.09570312 288.82617188 C-422.15177024 285.58628374 -420.37532533 282.26027334 -418.5859375 278.93359375 C-413.32723934 269.20629739 -407.85878083 259.62668181 -402.0078125 250.2421875 C-400.29080217 247.46958327 -398.61173347 244.67829632 -396.94921875 241.87280273 C-387.86707298 226.56732299 -378.34600164 211.4844023 -368 197 C-367.52771973 196.33081543 -367.05543945 195.66163086 -366.56884766 194.97216797 C-359.26187658 184.62081751 -351.67673676 174.58329797 -343.55126953 164.85986328 C-342.08455015 163.1013697 -340.63334401 161.33107813 -339.18359375 159.55859375 C-327.57293603 145.52634255 -314.61529298 131.919229 -300 121 C-299.47083984 120.59442871 -298.94167969 120.18885742 -298.39648438 119.77099609 C-276.46117329 102.95930665 -252.73114684 90.28320003 -227.25 79.6875 C-226.12803223 79.22021484 -225.00606445 78.75292969 -223.85009766 78.27148438 C-213.69881526 74.13334482 -203.36486928 70.5603117 -193 67 C-191.41272899 66.45264645 -189.82548865 65.90520398 -188.23828125 65.35766602 C-183.45325993 63.70957098 -178.66458611 62.07227452 -173.875 60.4375 C-173.01026062 60.14208313 -172.14552124 59.84666626 -171.25457764 59.54229736 C-157.73177095 54.92467132 -144.18559196 50.38031382 -130.625 45.875 C-82.58601566 30.03188052 -82.58601566 30.03188052 -35.18530273 12.40771484 C-29.46037733 10.14796463 -23.67653096 8.08811684 -17.86230469 6.07080078 C-13.10576366 4.41404077 -8.42716874 2.62278475 -3.78515625 0.6640625 C-2 0 -2 0 0 0 Z " fill="#DF6115" transform="translate(891,653)"/>
<path d="M0 0 C1.01980957 0.21962402 2.03961914 0.43924805 3.09033203 0.66552734 C6.05433007 1.33168437 8.99575482 2.05453866 11.9375 2.8125 C13.25306885 3.12985107 13.25306885 3.12985107 14.59521484 3.45361328 C18.68032813 4.61411023 20.51593025 5.29169913 22.96484375 8.875 C24.70951999 14.45226767 25.07702587 20.3995232 25.625 26.1875 C25.74617188 27.30447266 25.86734375 28.42144531 25.9921875 29.57226562 C28.23461852 52.00876292 28.15489384 74.67778427 28.1328125 97.203125 C28.13348982 99.70961517 28.13446335 102.21610527 28.13571167 104.72259521 C28.13716968 109.92916501 28.13509692 115.13571742 28.13037109 120.34228516 C28.12468611 126.91524601 28.12805539 133.4881663 28.13380337 140.06112576 C28.18474054 208.2663696 28.18474054 208.2663696 25.86254883 236.28833008 C25.68268278 238.49664362 25.52582006 240.7059478 25.36914062 242.91601562 C22.70794034 277.56688874 7.1575958 308.09520115 -19 331 C-39.02451126 347.41736395 -64.96379817 360.05182361 -91.22265625 360.203125 C-92.00458847 360.20882507 -92.78652069 360.21452515 -93.59214783 360.22039795 C-95.24362859 360.22980886 -96.89512781 360.23636631 -98.54663086 360.24023438 C-101.03078516 360.2498769 -103.51408846 360.28091066 -105.99804688 360.3125 C-115.45996177 360.37358815 -123.86629913 359.71523088 -133 357 C-135.40904645 347.05466295 -137.2967162 337.08682251 -139 327 C-136.93771534 326.51990738 -134.87516299 326.04096456 -132.8125 325.5625 C-131.08966797 325.16224609 -131.08966797 325.16224609 -129.33203125 324.75390625 C-128.23246094 324.50511719 -127.13289063 324.25632812 -126 324 C-125.24074219 323.81824219 -124.48148438 323.63648438 -123.69921875 323.44921875 C-120.40666405 322.90125379 -117.13222011 322.68938294 -113.80419922 322.45581055 C-89.53477821 320.67458802 -62.12593957 314.81739039 -45 296 C-31.37982412 279.0098837 -27.36042618 260.10203106 -24 239 C-25.63582031 239.29003906 -25.63582031 239.29003906 -27.3046875 239.5859375 C-60.12670012 245.30002501 -92.08923022 247.3924548 -121 228 C-128.12266683 222.98879567 -133.12812865 215.90916315 -138.47265625 209.1328125 C-140.52066744 206.59090793 -142.38028957 204.723398 -145.0390625 202.78955078 C-148.53879255 199.89950886 -149.04553514 197.24447828 -149.6875 192.7421875 C-149.90995999 191.30693571 -150.13262269 189.87171533 -150.35546875 188.43652344 C-150.46036621 187.7015564 -150.56526367 186.96658936 -150.67333984 186.20935059 C-151.09115186 183.38349868 -151.60169442 180.57907419 -152.11868286 177.7699585 C-160.5758114 131.75695232 -169.13264976 78.64960802 -141.66015625 37.06835938 C-125.89274332 14.27303706 -102.1806885 2.59764406 -75.32275391 -2.33837891 C-50.71098336 -6.37411564 -24.29397132 -5.28546687 0 0 Z M-95.9375 54.13671875 C-115.27887147 78.87467824 -113.7645415 119.5234652 -110.17529297 149.04052734 C-109.6154368 152.73949632 -108.89510906 156.36804039 -108 160 C-107.74259033 161.04969971 -107.74259033 161.04969971 -107.47998047 162.12060547 C-103.46393301 177.7433531 -97.06272343 193.05328528 -83 202 C-71.63469195 208.06791871 -60.32475156 208.08914962 -48 205 C-41.34138554 202.94078966 -34.99558229 200.54307865 -28.77172852 197.40551758 C-27.87656021 196.95509598 -26.98139191 196.50467438 -26.05909729 196.04060364 C-25.03984413 195.52550484 -25.03984413 195.52550484 -24 195 C-23.86777096 179.82805003 -23.73732576 164.65608539 -23.60884857 149.4841032 C-23.54911836 142.43511436 -23.48885562 135.38613089 -23.42724609 128.3371582 C-23.03035576 83.66930519 -23.03035576 83.66930519 -23 39 C-48.82376667 30.17140018 -77.18457075 33.45556492 -95.9375 54.13671875 Z " fill="#ffff" transform="translate(1230,1308)"/>
<path d="M0 0 C1.36520821 0.02009327 2.73044493 0.03833906 4.09570312 0.0546875 C7.41870134 0.10165567 10.74022992 0.16733274 14.0625 0.25 C16.87085213 6.35924601 18.81317063 12.63069237 20.75 19.0625 C21.46213596 21.40237529 22.1743785 23.74221814 22.88671875 26.08203125 C23.24813965 27.27393066 23.60956055 28.46583008 23.98193359 29.69384766 C25.66026496 35.21724908 27.36189522 40.73342447 29.0625 46.25 C29.72929265 48.4166279 30.39595897 50.58329468 31.0625 52.75 C31.3925 53.8225 31.7225 54.895 32.0625 56 C35.72916667 67.91666667 39.39583333 79.83333333 43.0625 91.75 C43.37383377 92.76180328 43.68516754 93.77360657 44.00593567 94.81607056 C44.67372252 96.98643809 45.34144535 99.15682532 46.00907898 101.32723999 C47.60178657 106.504649 49.19526953 111.68181317 50.79223633 116.85791016 C54.74498167 129.67622826 58.66842312 142.50325317 62.57421875 155.3359375 C62.81836958 156.13809818 63.06252041 156.94025887 63.31406975 157.76672745 C63.81654053 159.41764638 64.319007 161.06856663 64.82146931 162.71948814 C65.07479117 163.5518178 65.32811304 164.38414745 65.58911133 165.24169922 C65.84532603 166.08355082 66.10154074 166.92540241 66.36551952 167.79276466 C75.1136663 196.53379721 83.87361568 225.27146322 92.71562576 253.98377991 C93.15479301 255.40991045 93.59380647 256.83608835 94.03266525 258.26231384 C99.67908833 276.61014866 105.38857047 294.93281871 111.77856445 313.03857422 C117.52679896 329.62778678 117.52679896 329.62778678 114.875 336.1875 C111.78075788 339.70853414 109.06040163 341.55658878 104.4375 342.4375 C103.66148437 342.59605469 102.88546875 342.75460937 102.0859375 342.91796875 C94.16223381 343.78814293 86.33202953 343.11547435 78.4375 342.25 C77.52871094 342.15460938 76.61992187 342.05921875 75.68359375 341.9609375 C73.47602957 341.72856232 71.26907739 341.49153511 69.0625 341.25 C64.76817685 331.80432883 62.31583724 321.79660616 59.625 311.8125 C59.15612113 310.09165451 58.68672303 308.37095041 58.21679688 306.65039062 C56.33858741 299.75563095 54.47144539 292.85894398 52.68896484 285.9387207 C52.46724106 285.08152939 52.24551727 284.22433807 52.01707458 283.34117126 C51.59964735 281.72231085 51.18601777 280.10246431 50.7769928 278.48146057 C48.74742331 270.61275844 46.39477548 262.64936529 39.0625 258.25 C32.4745274 254.77301446 24.77845709 255.18243599 17.51953125 255.1953125 C16.75271027 255.19607788 15.98588928 255.19684326 15.1958313 255.19763184 C2.94154546 255.23630156 -9.31082282 255.51347501 -21.5625 255.75 C-24.13020544 255.79833099 -26.69791376 255.84650917 -29.265625 255.89453125 C-35.4896176 256.01126156 -41.71357216 256.12986895 -47.9375 256.25 C-48.90740626 257.99124634 -49.872851 259.73497829 -50.83642578 261.47973633 C-51.37453888 262.45050613 -51.91265198 263.42127594 -52.46707153 264.42146301 C-54.413035 268.16474584 -55.68652082 271.8854798 -56.8125 275.9375 C-57.05097656 276.75565186 -57.28945313 277.57380371 -57.53515625 278.41674805 C-59.11390507 283.95689421 -60.51697477 289.53698943 -61.8828125 295.1328125 C-62.05255585 295.82508438 -62.22229919 296.51735626 -62.39718628 297.23060608 C-63.23932258 300.67224769 -64.06779799 304.11610705 -64.87060547 307.56713867 C-71.30949943 334.71143367 -71.30949943 334.71143367 -78.9375 341.25 C-82.16706855 342.24661516 -85.25334429 342.20598587 -88.61328125 342.15234375 C-89.5384404 342.16463516 -90.46359955 342.17692657 -91.41679382 342.18959045 C-94.36200484 342.22129919 -97.30471116 342.20505008 -100.25 342.1875 C-102.25067429 342.20061015 -104.25133069 342.21685058 -106.25195312 342.23632812 C-111.1476693 342.27716482 -116.04169523 342.27500605 -120.9375 342.25 C-121.09795211 337.44587512 -120.68234049 333.54715384 -119.27734375 328.95703125 C-118.90407959 327.71574463 -118.53081543 326.47445801 -118.14624023 325.19555664 C-117.83817947 324.19445358 -117.83817947 324.19445358 -117.52389526 323.17312622 C-116.60946048 320.19879409 -115.71793275 317.21772214 -114.82484436 314.23692322 C-114.32935045 312.5831982 -113.83284875 310.92977485 -113.33543396 309.27662659 C-110.41685509 299.56147283 -107.6137447 289.81331409 -104.8102417 280.06445312 C-103.86367563 276.77312373 -102.91567036 273.4822119 -101.96728516 270.19140625 C-99.24108588 260.73050944 -96.51822303 251.26865298 -93.79589844 241.80664062 C-91.61459209 234.22507042 -89.43265903 226.64368089 -87.25 219.0625 C-86.88907257 217.80880615 -86.52814514 216.5551123 -86.15628052 215.26342773 C-81.74259073 199.93631688 -77.30554152 184.61653854 -72.8125 169.3125 C-68.41828467 154.34479791 -64.07073975 139.36408075 -59.75 124.375 C-59.28651154 122.76742828 -59.28651154 122.76742828 -58.81365967 121.12738037 C-55.59036793 109.9460972 -52.37160741 98.76351536 -49.15874386 87.57923126 C-47.64173017 82.2984156 -46.12361994 77.01791584 -44.60491276 71.73758698 C-43.3464493 67.36157026 -42.09059359 62.98481023 -40.83520508 58.60791016 C-37.65444624 47.53449364 -34.44286735 36.47070705 -31.125 25.4375 C-30.8470459 24.50294479 -30.5690918 23.56838959 -30.28271484 22.60551453 C-25.6316508 7.27343974 -25.6316508 7.27343974 -19.18359375 1.99609375 C-13.34870129 -1.11477433 -6.41468808 -0.16441952 0 0 Z M-4.9375 72.25 C-11.02924304 97.08280198 -17.11900483 121.91567432 -23.10009766 146.77539062 C-24.51716342 152.65518069 -25.94270697 158.53291413 -27.36828613 164.41064453 C-27.86906893 166.47554417 -28.36961935 168.54050002 -28.87011719 170.60546875 C-30.45980665 177.16324146 -32.05145361 183.72053018 -33.64735413 190.27679443 C-34.3973312 193.35833831 -35.14647595 196.44008425 -35.89553833 199.52185059 C-36.25536668 201.00120122 -36.61561307 202.48045023 -36.97628784 203.95959473 C-37.47479292 206.00406713 -37.97192271 208.04886934 -38.46875 210.09375 C-38.75298828 211.26099609 -39.03722656 212.42824219 -39.33007812 213.63085938 C-39.97515341 215.96424867 -39.97515341 215.96424867 -39.9375 217.25 C-15.8475 217.25 8.2425 217.25 33.0625 217.25 C30.58253103 206.09013965 28.06266327 194.99530395 25.2265625 183.9296875 C24.86629059 182.51505699 24.50629323 181.10035653 24.14654541 179.68559265 C23.38754103 176.70246759 22.62701667 173.71973649 21.86517334 170.73733521 C20.06078669 163.67300453 18.26472922 156.60655442 16.46840286 149.54017067 C16.0620614 147.94180764 15.6556256 146.34346859 15.24909592 144.74515343 C11.10332241 128.44469572 7.00962346 112.1315017 2.9375 95.8125 C2.48253143 93.98969513 2.48253143 93.98969513 2.01837158 92.13006592 C0.36472189 85.50379858 -1.28747166 78.87717004 -2.9375 72.25 C-3.5975 72.25 -4.2575 72.25 -4.9375 72.25 Z " fill="#ffff" transform="translate(120.9375,1209.75)"/>
<path d="M0 0 C0.72372803 0.00386719 1.44745605 0.00773437 2.19311523 0.01171875 C9.53484585 0.1267203 16.69640927 1.06950195 23.9375 2.25 C23.40659351 7.73603377 22.65128748 13.02564451 21.4375 18.40234375 C20.12518671 25.87637804 19.79130993 33.34813689 19.82397461 40.92236328 C19.82382858 41.83090561 19.82368256 42.73944794 19.8235321 43.67552185 C19.82422168 46.64047745 19.83196874 49.60536805 19.83984375 52.5703125 C19.84171133 54.64110276 19.84313363 56.71189346 19.84413147 58.78268433 C19.84792986 64.20443973 19.857737 69.62616788 19.86883545 75.0479126 C19.87910743 80.59183382 19.88364144 86.13575949 19.88867188 91.6796875 C19.89936191 102.53647023 19.9164058 113.39323284 19.9375 124.25 C20.73693527 123.96048965 21.53637054 123.67097931 22.36003113 123.37269592 C25.36862394 122.28507362 28.37834933 121.2006591 31.38883972 120.11830139 C32.68370484 119.65204546 33.97813082 119.18456785 35.27207947 118.71577454 C60.11423912 109.71889077 89.67213683 103.29074708 115.125 114.1875 C121.9240679 117.9673208 127.52489882 123.73447363 132.9375 129.25 C133.8553125 130.11109375 134.773125 130.9721875 135.71875 131.859375 C139.31334018 136.31562764 139.1758947 142.07007405 139.625 147.5625 C139.79588135 149.35905029 139.79588135 149.35905029 139.97021484 151.19189453 C140.31398227 154.87636371 140.62676833 158.56261762 140.9375 162.25 C141.1327273 164.35559784 141.32926953 166.46107432 141.52734375 168.56640625 C144.09549517 196.92011438 144.10223693 225.35199473 144.06787109 253.79541016 C144.06219084 258.53548056 144.06555117 263.27549456 144.07131577 268.01556301 C144.15436813 348.81626374 144.15436813 348.81626374 140.9375 355.25 C131.03066926 357.14298765 120.2618896 356.56792752 110.1875 356.8125 C108.50780438 356.85580617 106.82811677 356.89942377 105.1484375 356.94335938 C101.07820817 357.04915786 97.00789433 357.150761 92.9375 357.25 C92.81578562 344.05616108 92.91893995 330.88676459 93.29589844 317.69897461 C94.37931139 279.74350104 95.31393983 241.36344363 93.0625 203.4375 C93.00369156 202.42576218 93.00369156 202.42576218 92.94369507 201.39358521 C92.10119032 187.51439546 92.10119032 187.51439546 88.8515625 174.0546875 C87.58835875 170.17870334 87.47735995 166.42780705 87.3125 162.375 C87.27382813 161.59125 87.23515625 160.8075 87.1953125 160 C87.10183378 158.08368633 87.01861505 156.16687681 86.9375 154.25 C84.73040017 153.59996375 82.52176108 152.95515255 80.3125 152.3125 C79.08273437 151.95285156 77.85296875 151.59320312 76.5859375 151.22265625 C59.98829652 146.79780335 44.04003473 148.92215236 29.0234375 157.19921875 C26.98455096 158.2262983 25.1501351 158.7359914 22.9375 159.25 C22.94240952 160.43934647 22.94731903 161.62869293 22.95237732 162.8540802 C23.09407491 201.15593403 22.66147014 239.44094541 22.10327756 277.73772061 C22.0089382 284.24302954 21.92115281 290.74841603 21.83466727 297.25383347 C21.74988442 303.61498173 21.66132769 309.97606958 21.56965441 316.33712226 C21.51548025 320.09840239 21.46271209 323.85968821 21.4136219 327.62103844 C21.35949402 331.75355574 21.29748497 335.88591695 21.23461914 340.01831055 C21.21951294 341.25147507 21.20440674 342.48463959 21.18884277 343.75517273 C21.1706398 344.8677948 21.15243683 345.98041687 21.13368225 347.12675476 C21.11985536 348.09807689 21.10602846 349.06939901 21.09178257 350.07015514 C20.9375 352.25 20.9375 352.25 19.9375 353.25 C18.42061991 353.5253686 16.89300652 353.74203782 15.36328125 353.93359375 C13.91127319 354.11680176 13.91127319 354.11680176 12.42993164 354.30371094 C11.3805542 354.43036133 10.33117676 354.55701172 9.25 354.6875 C8.18322021 354.81801758 7.11644043 354.94853516 6.01733398 355.08300781 C-1.47953269 355.98207956 -8.98293169 356.78966177 -16.5 357.5 C-17.91962036 357.6381311 -17.91962036 357.6381311 -19.36791992 357.77905273 C-20.23521729 357.85712158 -21.10251465 357.93519043 -21.99609375 358.015625 C-23.1416272 358.12052246 -23.1416272 358.12052246 -24.31030273 358.22753906 C-24.88852783 358.23495117 -25.46675293 358.24236328 -26.0625 358.25 C-27.61880762 356.69369238 -27.1939176 355.20724365 -27.2011652 353.04103947 C-27.20663964 352.12733336 -27.21211409 351.21362724 -27.21775442 350.27223307 C-27.21873253 349.25637092 -27.21971064 348.24050877 -27.22071838 347.19386292 C-27.22565636 346.12320507 -27.23059434 345.05254722 -27.23568195 343.94944519 C-27.25114776 340.32901004 -27.25944346 336.70859276 -27.26782227 333.08813477 C-27.27739693 330.50232281 -27.28740676 327.91651244 -27.29782104 325.33070374 C-27.3225064 319.00207968 -27.34188029 312.67344966 -27.35957379 306.34480263 C-27.3805488 298.92419006 -27.40700988 291.50360005 -27.43374526 284.08300637 C-27.48153946 270.77190202 -27.52472393 257.46078671 -27.56518555 244.1496582 C-27.60406858 231.3602598 -27.64547264 218.57087353 -27.69018555 205.78149414 C-27.69290982 205.00208745 -27.69563409 204.22268076 -27.69844092 203.41965569 C-27.70941287 200.28247774 -27.7203919 197.14529982 -27.73138306 194.00812194 C-27.77968425 180.20149903 -27.82575164 166.39486851 -27.87155947 152.58823714 C-27.8788371 150.39970129 -27.88616345 148.21116562 -27.89350247 146.02262998 C-27.90774153 141.7705041 -27.9218006 137.51837766 -27.9356842 133.26625061 C-27.93794037 132.57547817 -27.94019654 131.88470573 -27.94252107 131.17300079 C-27.97939938 119.79648927 -28.00703157 108.41997417 -28.03092641 97.04342717 C-28.0476834 89.66106328 -28.07468823 82.27885292 -28.11314537 74.89657791 C-28.14445205 68.83172045 -28.16597908 62.76686738 -28.18447864 56.70195568 C-28.19401301 54.17957105 -28.20706614 51.65719684 -28.22393715 49.13485062 C-28.2467386 45.66387459 -28.25691067 42.19306898 -28.26426697 38.72203064 C-28.27400492 37.71714486 -28.28374287 36.71225907 -28.29377592 35.6769222 C-28.28854547 24.16271576 -26.86204106 12.51977412 -18.75 3.75 C-12.88119716 0.47438911 -6.61472159 -0.08720998 0 0 Z " fill="#ffff" transform="translate(494.0625,1193.75)"/>
<path d="M0 0 C1.59735524 0.0017158 3.19471329 0.00164067 4.79206848 -0.00012207 C8.14021801 0.00152782 11.48769547 0.02013861 14.83569336 0.05175781 C19.06275782 0.09102128 23.2889356 0.09557448 27.51614666 0.08868885 C75.90484043 0.03529888 75.90484043 0.03529888 89.76953125 8.59375 C90.49011719 9.02429687 91.21070313 9.45484375 91.953125 9.8984375 C102.15150377 16.72306148 107.29527977 27.85405897 109.76953125 39.59375 C112.32579173 53.97863484 112.07925306 68.42650478 112.0703125 82.98828125 C112.07322309 84.98534147 112.07614112 86.98240176 112.07971925 88.9794609 C112.09075666 95.26781964 112.09129208 101.55611871 112.08520508 107.84448242 C112.07989655 113.50405827 112.08675415 119.16345196 112.10571289 124.82299805 C112.28284147 178.96866326 112.28284147 178.96866326 110.375 205.35546875 C110.2810517 206.65894225 110.2810517 206.65894225 110.18520546 207.98874855 C108.23103519 234.20050311 108.23103519 234.20050311 103.92578125 238.3046875 C102.17749023 239.18847656 102.17749023 239.18847656 100.26953125 239.96875 C99.27191772 240.4323291 99.27191772 240.4323291 98.25415039 240.90527344 C96.11408035 241.8670023 93.95456659 242.73956007 91.76953125 243.59375 C90.72321533 244.01479004 90.72321533 244.01479004 89.65576172 244.44433594 C52.19464407 259.17204554 11.67305478 255.80049845 -24.85546875 240.09375 C-27.32920017 238.9566803 -29.77817704 237.77713936 -32.23046875 236.59375 C-33.15988281 236.21605469 -34.08929687 235.83835937 -35.046875 235.44921875 C-39.32319013 233.34276369 -40.88334869 231.42378062 -42.73828125 226.98828125 C-44.24360877 222.26354254 -45.25146769 217.45002755 -46.23046875 212.59375 C-46.4197998 211.70429687 -46.60913086 210.81484375 -46.80419922 209.8984375 C-52.0022899 185.26343559 -54.5349856 158.28262532 -44.23046875 134.59375 C-43.81023437 133.62566406 -43.39 132.65757812 -42.95703125 131.66015625 C-35.81717322 117.11217963 -23.70746019 107.05031786 -8.59375 101.62890625 C12.03202674 95.28067067 41.98999693 96.69625365 62.76953125 102.59375 C62.84431749 97.50751878 62.89843051 92.42161558 62.93432617 87.33496094 C62.949308 85.60866716 62.96970064 83.88241074 62.99584961 82.15625 C63.20070921 68.27399938 62.4613105 57.21428357 53.4765625 45.9765625 C44.09190237 38.37434354 23.98084058 40.87966463 12.78808594 41.85302734 C5.75790319 42.59226241 -1.23627165 43.57421434 -8.23046875 44.59375 C-11.22017755 45.02561293 -14.21010793 45.45530416 -17.20117188 45.87768555 C-19.02269912 46.13636119 -20.84315689 46.40275508 -22.66210938 46.67895508 C-30.34767639 47.78676448 -38.65245533 48.7171564 -46.23046875 46.59375 C-50.6154062 39.97205153 -52.65373792 31.49477457 -52.23046875 23.59375 C-50.63475108 18.52499976 -47.58007014 15.50418298 -43.23046875 12.59375 C-40.17837492 11.19880557 -37.04139658 10.14069798 -33.85546875 9.09375 C-32.21952003 8.5510305 -30.5866356 7.99898227 -28.95703125 7.4375 C-28.24111816 7.20224609 -27.52520508 6.96699219 -26.78759766 6.72460938 C-24.29963698 5.75533401 -24.29963698 5.75533401 -22.7250824 4.38537598 C-15.91415542 -0.8687192 -8.18850645 -0.09379071 0 0 Z M7.76953125 139.59375 C-1.09309022 149.96998772 -3.40863984 161.72170073 -3.41796875 174.96875 C-3.43021484 175.87625 -3.44246094 176.78375 -3.45507812 177.71875 C-3.48318641 190.72351873 0.57384432 203.15558045 9.76953125 212.59375 C17.99720683 219.11859911 26.45958237 220.506434 36.76953125 219.59375 C41.5925196 218.62706219 46.12439521 217.19325439 50.76953125 215.59375 C51.75953125 215.38234375 52.74953125 215.1709375 53.76953125 214.953125 C57.10443691 213.96428669 58.52938065 213.29644182 60.76953125 210.59375 C62.69513101 204.6834933 63.11707952 198.4100748 63.56787109 192.24267578 C63.75386672 189.79951291 64.02421463 187.38197859 64.3125 184.94921875 C64.97162571 178.41015051 64.99214323 171.85536253 65.00976562 165.28955078 C65.01951412 163.09760167 65.05065776 160.90657597 65.08203125 158.71484375 C65.37802877 145.68720134 65.37802877 145.68720134 59.83203125 134.33984375 C58.81109375 133.69208984 58.81109375 133.69208984 57.76953125 133.03125 C56.74859375 132.34869141 56.74859375 132.34869141 55.70703125 131.65234375 C42.41533155 124.39014492 18.35553243 129.79351385 7.76953125 139.59375 Z " fill="#ffff" transform="translate(1888.23046875,1303.40625)"/>
<path d="M0 0 C0.70125 0.86625 1.4025 1.7325 2.125 2.625 C2.61355469 3.19863281 3.10210938 3.77226563 3.60546875 4.36328125 C15.4721693 18.98422834 16.27777373 38.89621984 16.27026367 56.93237305 C16.27362228 58.11152786 16.2769809 59.29068268 16.28044128 60.50556946 C16.28989269 64.38263015 16.29189251 68.25964726 16.29296875 72.13671875 C16.29439561 73.49032929 16.29599228 74.84393967 16.29775429 76.19754982 C16.30699151 83.30838058 16.31109265 90.41919274 16.31030273 97.5300293 C16.30970766 104.06492552 16.32015015 110.59973767 16.3360464 117.13461274 C16.3493407 122.81087542 16.35447746 128.48711147 16.35384732 134.1633895 C16.35359792 137.52336229 16.35711714 140.88320308 16.36702538 144.24316978 C16.42877338 167.3755502 15.33501844 190.34211096 13.1875 213.375 C13.09508262 214.42304416 13.09508262 214.42304416 13.00079823 215.49226093 C12.56895036 219.3565351 11.92540975 221.86894063 9.125 224.625 C-13.00894931 238.18052654 -40.90591511 238.00502509 -65.89813137 238.61640453 C-70.02035539 238.7178863 -74.13991388 238.83911649 -78.26000977 239.00708008 C-82.2782446 239.17038906 -86.29504504 239.28270047 -90.31581306 239.36052895 C-91.83399697 239.39835696 -93.35186201 239.4536359 -94.86871147 239.52766991 C-103.0532778 239.91414113 -108.78757767 239.54596629 -115.15649414 233.83325195 C-116.77129792 232.13613463 -118.34859661 230.40204562 -119.875 228.625 C-120.55715073 227.87747971 -121.23930145 227.12995941 -121.94212341 226.35978699 C-123.07592517 225.10679566 -124.18494958 223.8309866 -125.26953125 222.53515625 C-126.33776428 221.26419287 -127.43999897 220.02103559 -128.57421875 218.80859375 C-139.13878127 207.43685117 -146.71761482 193.04540086 -148.875 177.625 C-149.07609375 176.45517578 -149.07609375 176.45517578 -149.28125 175.26171875 C-152.26584942 153.45379346 -145.55485301 126.71564652 -132.60400391 108.87402344 C-124.35960543 98.40638249 -114.53945334 92.52610393 -101.875 88.625 C-101.194375 88.40972656 -100.51375 88.19445313 -99.8125 87.97265625 C-78.28892305 82.21341789 -53.43318879 86.30715511 -31.875 89.625 C-31.91951866 84.27163097 -31.98972768 78.91940072 -32.08251953 73.56665039 C-32.11053465 71.75033695 -32.13184474 69.933906 -32.14599609 68.11743164 C-32.24061694 56.65253869 -32.6083555 46.89409803 -38.5625 36.75 C-47.72631542 28.32919664 -59.73726516 26.43916842 -71.80419922 26.68457031 C-74.83421608 26.86437241 -77.85187827 27.10299737 -80.875 27.375 C-81.96369385 27.46861816 -83.0523877 27.56223633 -84.17407227 27.65869141 C-97.13817855 28.8354319 -109.76683817 30.85333327 -122.4375 33.8125 C-135.35844211 36.79799441 -135.35844211 36.79799441 -140.875 35.625 C-143.97299981 33.43373184 -144.67852112 32.21443664 -145.875 28.625 C-146.26063867 24.67308457 -146.33725091 20.71799905 -146.4375 16.75 C-146.50001953 15.66074219 -146.56253906 14.57148437 -146.62695312 13.44921875 C-146.78501469 5.62277636 -146.78501469 5.62277636 -144.24975586 2.84301758 C-142.17487671 1.51929037 -140.15572035 0.54310563 -137.875 -0.375 C-136.92496094 -0.85066406 -135.97492187 -1.32632812 -134.99609375 -1.81640625 C-121.19629529 -7.58138756 -107.52955078 -10.16959555 -92.75 -11.625 C-91.51626144 -11.75057785 -91.51626144 -11.75057785 -90.25759888 -11.87869263 C-22.60996614 -18.67779811 -22.60996614 -18.67779811 0 0 Z M-86.875 126.625 C-87.42671875 127.14964844 -87.9784375 127.67429687 -88.546875 128.21484375 C-92.8446301 132.73599701 -94.96931388 137.7430265 -96.875 143.625 C-97.101875 144.28757812 -97.32875 144.95015625 -97.5625 145.6328125 C-101.69787849 160.27894467 -99.38948969 177.94570722 -92.125 191.125 C-87.27960103 198.43560196 -80.53091153 204.48320052 -71.875 206.625 C-61.81950813 207.72962368 -53.2513223 206.21566199 -43.875 202.625 C-42.64716797 202.27888672 -42.64716797 202.27888672 -41.39453125 201.92578125 C-39.02524503 201.11012534 -37.64689187 200.4014586 -35.875 198.625 C-33.93023272 194.47475389 -33.3994711 190.13564826 -32.875 185.625 C-32.77493652 184.78324219 -32.67487305 183.94148438 -32.57177734 183.07421875 C-28.18541924 153.10855548 -28.18541924 153.10855548 -33.5625 124.3125 C-37.56518997 119.66072517 -41.74636227 116.9948125 -47.85107422 116.44799805 C-61.95258444 116.03227347 -76.09751762 116.17487106 -86.875 126.625 Z " fill="#ffff" transform="translate(813.875,1316.375)"/>
<path d="M0 0 C13.98108655 13.29638879 19.89415727 35.21796753 20.79536438 53.99772644 C20.85124663 56.43376675 20.87833823 58.86803536 20.890625 61.3046875 C20.89632507 62.20510773 20.90202515 63.10552795 20.90789795 64.03323364 C20.91729969 65.93425339 20.92386261 67.83528907 20.92773438 69.73632812 C20.93735578 72.58233833 20.96839055 75.4275988 21 78.2734375 C21.06724861 90.10340177 19.94535695 101.15203274 17.6875 112.75 C17.40769049 114.70707097 17.13435316 116.66511325 16.875 118.625 C16.16503553 121.86421291 15.78642019 122.64840629 13.375 125.125 C11.7421875 125.95703125 11.7421875 125.95703125 9.6875 126.75 C8.82382813 127.08386719 7.96015625 127.41773438 7.0703125 127.76171875 C-11.14840748 133.99687864 -30.83751912 134.92041661 -49.921875 134.84765625 C-51.38445995 134.84578592 -52.84704554 134.84436493 -54.30963135 134.84336853 C-58.11696166 134.83959171 -61.92425244 134.82980409 -65.73156738 134.81866455 C-69.63353949 134.80834512 -73.53551812 134.80384859 -77.4375 134.79882812 C-85.06251782 134.78817633 -92.68750332 134.77115975 -100.3125 134.75 C-100.19071291 138.75171642 -100.05370001 142.75277607 -99.9140625 146.75390625 C-99.86294312 148.44271912 -99.86294312 148.44271912 -99.81079102 150.16564941 C-99.35234041 162.83787257 -97.27549204 174.15170009 -88.3125 183.75 C-73.62874315 196.75489728 -55.84658882 196.56587422 -37.3125 195.75 C-31.53597681 195.25055979 -25.93937955 194.11835187 -20.3125 192.75 C-19.51021973 192.55712402 -18.70793945 192.36424805 -17.88134766 192.16552734 C-7.27226287 189.58659247 -7.27226287 189.58659247 3.05859375 186.09375 C6.6875 184.75 6.6875 184.75 9.6875 184.75 C14.68561423 190.88258983 17.76721511 197.25035162 17.171875 205.21875 C15.51620006 213.87098678 10.13305231 219.44250908 3.24609375 224.56640625 C-19.12810621 239.64537944 -51.17296562 243.19037571 -77.375 238.5 C-93.76210985 235.28308664 -108.5072521 229.66113831 -121.3125 218.75 C-122.3025 218.028125 -123.2925 217.30625 -124.3125 216.5625 C-144.51268489 199.39234284 -148.74261061 170.37245166 -150.9140625 145.5625 C-151.47505841 137.4628568 -151.5114587 129.3655207 -151.5 121.25 C-151.49939575 120.45664246 -151.4987915 119.66328491 -151.49816895 118.84588623 C-151.44550029 93.31122159 -148.99394236 67.92680751 -140.3125 43.75 C-139.96832031 42.78175293 -139.96832031 42.78175293 -139.6171875 41.79394531 C-133.09908368 23.69904445 -122.78174711 9.23516347 -106.5078125 -1.1484375 C-103.32216806 -3.13394012 -103.32216806 -3.13394012 -100.8046875 -5.4765625 C-78.16154188 -24.51896325 -21.76302202 -18.2809385 0 0 Z M-83.29296875 32.859375 C-98.70357564 51.91726838 -100.57848883 77.19521151 -100.3125 100.75 C-89.77215586 100.89482916 -79.23145532 100.7362198 -68.69381714 100.48654175 C-67.24756566 100.45421148 -65.80120159 100.42653514 -64.35476685 100.40383911 C-52.37665225 100.20846382 -39.92631124 99.94082172 -30.765625 91.2890625 C-23.57276899 83.70451631 -21.72146075 75.46839961 -21.83764648 65.21923828 C-22.38267479 51.56786461 -27.93930271 39.71679706 -37.125 29.765625 C-44.08113262 23.35604565 -51.20245462 21.41636726 -60.44140625 21.5390625 C-69.27479747 22.18804634 -77.25529966 26.42872153 -83.29296875 32.859375 Z " fill="#ffff" transform="translate(1649.3125,1318.25)"/>
<path d="M0 0 C9.44898651 8.68400109 12.10372435 17.74892038 13.5 30.125 C13.62117187 31.09953125 13.74234375 32.0740625 13.8671875 33.078125 C15.56812132 47.35117833 16.08300961 61.70381362 16.4375 76.0625 C16.45834656 76.8953653 16.47919312 77.72823059 16.50067139 78.58633423 C17.35319569 113.90196861 17.0882577 149.24584806 16.4375 184.5625 C16.4179425 185.65589691 16.39838501 186.74929382 16.37823486 187.87582397 C16.13954206 200.81245854 15.70607097 213.71229859 14.875 226.625 C9.97178668 227.79806011 5.02890766 228.06432564 0.015625 228.4140625 C-0.92935852 228.48160736 -1.87434204 228.54915222 -2.84796143 228.6187439 C-4.8381394 228.75986516 -6.82843868 228.89928458 -8.81884766 229.03710938 C-11.87841046 229.25023757 -14.93722205 229.47251004 -17.99609375 229.6953125 C-19.92964847 229.83128526 -21.86324107 229.96672084 -23.796875 230.1015625 C-24.71660095 230.16920807 -25.6363269 230.23685364 -26.58392334 230.30654907 C-28.76192686 230.45329178 -30.94352483 230.54500723 -33.125 230.625 C-34.125 229.625 -34.125 229.625 -34.23966789 226.72993183 C-34.23484964 225.42165519 -34.23003139 224.11337854 -34.22506714 222.76545715 C-34.22380487 222.03944122 -34.22254259 221.3134253 -34.22124207 220.56540889 C-34.21583142 218.11363708 -34.20330195 215.66195086 -34.19091797 213.21020508 C-34.18572828 211.45939769 -34.18101945 209.70858882 -34.17675781 207.95777893 C-34.16678958 204.17581159 -34.15392893 200.39386859 -34.13903427 196.6119175 C-34.11600742 190.62212184 -34.102676 184.6323296 -34.09133911 178.64250183 C-34.05788219 161.60513054 -34.01652239 144.5678075 -33.95361328 127.53051758 C-33.91898217 118.12951863 -33.89524074 108.72855653 -33.88340485 99.32750052 C-33.87665806 94.3549023 -33.86430039 89.38245986 -33.83837509 84.40992165 C-33.81393274 79.72073408 -33.80373191 75.03172319 -33.80397034 70.34247398 C-33.80156861 68.6309645 -33.79408398 66.9194525 -33.78084183 65.20799255 C-33.55041883 44.41743492 -33.55041883 44.41743492 -43.125 26.625 C-47.91664425 22.59724106 -52.99846479 20.60524563 -59.125 19.625 C-60.21941406 19.42390625 -60.21941406 19.42390625 -61.3359375 19.21875 C-67.8973763 18.30801402 -74.3082127 18.80066859 -80.875 19.375 C-82.22404419 19.48569824 -82.22404419 19.48569824 -83.6003418 19.59863281 C-90.83778583 20.31506531 -97.29557794 21.96606275 -102.84996319 27.03302956 C-109.20244001 34.96453024 -107.52689303 47.46647361 -107.46557617 57.01806641 C-107.46472886 58.87173448 -107.46520707 60.72540356 -107.46690369 62.57907104 C-107.46776101 67.58667292 -107.45017796 72.59405724 -107.42918181 77.60160875 C-107.41037102 82.84396276 -107.40866111 88.08632228 -107.40510559 93.32870483 C-107.39579804 103.24489051 -107.37120174 113.16097644 -107.34105712 123.07711828 C-107.30747292 134.37095436 -107.291017 145.66479532 -107.27597082 156.95866895 C-107.24465102 180.1808345 -107.19191566 203.40291165 -107.125 226.625 C-111.08127293 227.99518306 -114.42599583 228.89499721 -118.6171875 229.0390625 C-119.65359375 229.07773438 -120.69 229.11640625 -121.7578125 229.15625 C-123.36269531 229.20265625 -123.36269531 229.20265625 -125 229.25 C-126.03125 229.28867188 -127.0625 229.32734375 -128.125 229.3671875 C-136.80285735 229.66568874 -145.43069781 229.625 -154.125 229.625 C-154.125 153.395 -154.125 77.165 -154.125 -1.375 C-142.84933616 -7.01283192 -142.84933616 -7.01283192 -138.85546875 -8.25390625 C-137.5092041 -8.67313354 -137.5092041 -8.67313354 -136.13574219 -9.10083008 C-135.20407227 -9.37693115 -134.27240234 -9.65303223 -133.3125 -9.9375 C-132.31766602 -10.23487061 -131.32283203 -10.53224121 -130.29785156 -10.83862305 C-120.35580709 -13.72723258 -110.35694436 -15.82464415 -100.125 -17.375 C-99.35833008 -17.49214355 -98.59166016 -17.60928711 -97.80175781 -17.72998047 C-65.70222556 -22.39182449 -25.70872535 -22.34566535 0 0 Z " fill="#ffff" transform="translate(413.125,1321.375)"/>
<path d="M0 0 C0.67772461 0.18723633 1.35544922 0.37447266 2.05371094 0.56738281 C15.30203256 4.37044589 27.90260171 12.22259143 34.8125 24.5 C40.16010587 36.61962499 40.56523563 50.50958152 41.125 63.5625 C41.20327045 65.22316073 41.28189238 66.88380492 41.36083984 68.54443359 C42.19838105 86.68834406 42.73327543 104.83905042 43 123 C43.01202454 123.80068909 43.02404907 124.60137817 43.03643799 125.42633057 C43.57594326 163.29615057 42.17899862 201.1535756 41 239 C37.47228353 240.24866873 34.20635422 241.25447508 30.47924805 241.61010742 C29.64205734 241.69326706 28.80486664 241.7764267 27.94230652 241.86210632 C26.61541557 241.98257072 26.61541557 241.98257072 25.26171875 242.10546875 C24.34034622 242.19379471 23.41897369 242.28212067 22.46968079 242.37312317 C20.53276242 242.557105 18.59550989 242.73759858 16.65795898 242.91479492 C13.67919909 243.18826207 10.70194759 243.47517866 7.72460938 243.76367188 C5.84122074 243.94090197 3.95775942 244.11736174 2.07421875 244.29296875 C0.73214607 244.42254219 0.73214607 244.42254219 -0.63703918 244.55473328 C-2.75470571 244.74474183 -4.87730675 244.87839364 -7 245 C-8 244 -8 244 -8.12025452 241.33195496 C-8.11803391 240.13081558 -8.11581329 238.92967621 -8.11352539 237.69213867 C-8.11367425 237.02540917 -8.11382311 236.35867968 -8.11397648 235.67174625 C-8.11327782 233.42045574 -8.10541624 231.16924521 -8.09765625 228.91796875 C-8.09573833 227.30995734 -8.09427394 225.70194533 -8.0932312 224.09393311 C-8.09006046 220.6197297 -8.08377649 217.14555034 -8.07516479 213.6713562 C-8.06165874 208.16379984 -8.05575024 202.65625157 -8.05102539 197.14868164 C-8.03896004 184.44122167 -8.01703195 171.73378223 -7.99479675 159.02633667 C-7.97456182 147.4236615 -7.95648148 135.82099383 -7.94658184 124.21830463 C-7.94163627 118.75953805 -7.93182958 113.30080956 -7.91815186 107.84205818 C-7.91060759 104.41709848 -7.9073596 100.99214374 -7.9051857 97.56717682 C-7.90333808 95.99723247 -7.89978757 94.42728889 -7.89425278 92.85735321 C-7.86679241 84.80300326 -7.99111302 76.7844298 -8.4519043 68.74169922 C-8.49187247 68.03896346 -8.53184065 67.3362277 -8.57301998 66.61219692 C-8.88947822 61.61207113 -9.58971761 57.02474496 -10.875 52.1875 C-11.11669922 51.20813477 -11.11669922 51.20813477 -11.36328125 50.20898438 C-12.33431737 46.51678888 -13.59904118 43.94288952 -16 41 C-16 40.34 -16 39.68 -16 39 C-16.680625 38.731875 -17.36125 38.46375 -18.0625 38.1875 C-20.22584305 37.31295707 -22.36926002 36.38872321 -24.5 35.4375 C-39.76907301 29.16627358 -60.10826895 33.19740859 -74.86328125 39.23046875 C-77 40 -77 40 -80 40 C-79.99723462 40.87039445 -79.99446924 41.7407889 -79.99162006 42.63755894 C-79.92506802 63.91752355 -79.8755783 85.19746997 -79.84456348 106.47751713 C-79.82916234 116.76882248 -79.80820369 127.06005792 -79.77368164 137.35131836 C-79.74357066 146.33196723 -79.72437608 155.31256542 -79.71773452 164.29326338 C-79.7138586 169.03867752 -79.70489464 173.78394681 -79.68280983 178.52931404 C-79.47456397 225.12300493 -79.47456397 225.12300493 -85 243 C-99.00750569 243.60288715 -112.97859717 244.14088934 -127 244 C-127.90299873 234.28207398 -128.16715087 224.61601741 -128.20532227 214.86401367 C-128.2149303 213.28482321 -128.22494194 211.70563517 -128.23532104 210.12644958 C-128.26216949 205.86381774 -128.28331541 201.60117519 -128.30332303 197.33850646 C-128.32548276 192.81527771 -128.35276048 188.29207943 -128.37937927 183.76887512 C-128.42356254 176.13881853 -128.46431024 168.50875002 -128.50268555 160.87866211 C-128.55115113 151.24496349 -128.60498232 141.61130332 -128.66065407 131.97764397 C-128.8859821 92.98508421 -129.08909612 53.99335559 -129 15 C-126.76494921 13.86400218 -124.52800326 12.73204097 -122.28979492 11.60229492 C-121.66091118 11.28214165 -121.03202744 10.96198837 -120.38408661 10.63213348 C-115.77206384 8.30969397 -111.31397888 6.5417588 -106.3125 5.3125 C-105.56323242 5.11736816 -104.81396484 4.92223633 -104.04199219 4.72119141 C-101.69982773 4.12324373 -99.35241927 3.55613328 -97 3 C-96.24058105 2.81840332 -95.48116211 2.63680664 -94.69873047 2.44970703 C-89.15895513 1.1481013 -83.59583716 0.03174634 -78 -1 C-76.80407227 -1.22864746 -76.80407227 -1.22864746 -75.58398438 -1.46191406 C-51.34951472 -5.94655013 -23.85136738 -6.74706424 0 0 Z " fill="#ffff" transform="translate(997,1307)"/>
<path d="M0 0 C1.15680267 0.00212242 1.15680267 0.00212242 2.3369751 0.00428772 C4.79239838 0.00987091 7.24772942 0.0224203 9.703125 0.03515625 C11.37109243 0.04017342 13.03906129 0.04473595 14.70703125 0.04882812 C18.78909787 0.05983484 22.87109581 0.07708789 26.953125 0.09765625 C27.27249076 1.84641631 27.58309849 3.59677542 27.890625 5.34765625 C28.06464844 6.3221875 28.23867187 7.29671875 28.41796875 8.30078125 C29.70695147 17.44597253 30.10426331 26.54694977 30.0859375 35.7734375 C30.08791641 37.38514076 30.08791641 37.38514076 30.0899353 39.02940369 C30.09183682 42.48968482 30.08553279 45.94988343 30.078125 49.41015625 C30.07679565 51.20096619 30.07679565 51.20096619 30.07543945 53.0279541 C30.06401794 66.14468817 29.99689231 79.24095602 29.453125 92.34765625 C28.90699438 106.02556672 28.77538206 119.70225601 28.72094727 133.39001465 C28.70925937 135.90347331 28.6923514 138.41691429 28.66967773 140.93029785 C27.42365666 174.85681529 27.42365666 174.85681529 41.08984375 204.734375 C51.04289803 212.01658872 65.14812842 212.02388092 76.88671875 210.7890625 C85.27880173 209.44394849 92.75003108 206.59958995 99.953125 202.09765625 C100.613125 202.09765625 101.273125 202.09765625 101.953125 202.09765625 C101.95220321 201.07390711 101.95128141 200.05015797 101.95033169 198.99538612 C101.92815985 174.11764171 101.91171243 149.23989857 101.90131283 124.36214638 C101.89615035 112.33159662 101.88910857 100.30105339 101.87768555 88.27050781 C101.86773723 77.78813561 101.86127122 67.30576812 101.85903651 56.82339132 C101.85772965 51.26995661 101.85464537 45.7165354 101.84739494 40.16310501 C101.84063242 34.94131791 101.83850852 29.71954993 101.84001732 24.49775887 C101.8397411 22.57642958 101.83773735 20.65509969 101.83391953 18.73377419 C101.82897867 16.12015053 101.83012819 13.50660004 101.83287048 10.89297485 C101.82995764 10.12450183 101.8270448 9.3560288 101.82404369 8.56426871 C101.83900379 3.32589867 101.83900379 3.32589867 102.953125 1.09765625 C115.47013513 0.54239483 127.98450022 0.00057558 140.515625 -0.02734375 C141.78067871 -0.03411133 141.78067871 -0.03411133 143.07128906 -0.04101562 C148.8289744 -0.02649435 148.8289744 -0.02649435 149.953125 1.09765625 C150.05555226 4.05137081 150.09197454 6.98184975 150.08683777 9.93614197 C150.08910333 10.8748023 150.09136888 11.81346264 150.09370309 12.78056723 C150.10007409 15.95129858 150.09921175 19.12198753 150.09838867 22.29272461 C150.10137823 24.55560868 150.10478028 26.81849224 150.10856628 29.08137512 C150.11743103 35.24654555 150.11974543 41.41170212 150.12038207 47.57687831 C150.12132905 52.71391497 150.12500488 57.85094836 150.12855417 62.98798376 C150.13624171 74.40908962 150.13922194 85.83018641 150.13854881 97.25129419 C150.13850886 97.93721232 150.1384689 98.62313045 150.13842773 99.32983398 C150.13838685 100.01658526 150.13834597 100.70333653 150.13830385 101.41089845 C150.13789726 112.54485683 150.147469 123.67878141 150.1615661 134.81273001 C150.17591174 146.23268092 150.18265392 157.65260849 150.18197232 169.07256991 C150.18171663 175.48896168 150.18460697 181.90531523 150.19515038 188.32169914 C150.20479075 194.35362436 150.20493862 200.38547449 150.19763374 206.41740227 C150.19658283 208.63705555 150.19898051 210.85671341 150.2049942 213.0763588 C150.21264594 216.09505815 150.20811494 219.11349372 150.20036316 222.13218689 C150.2080785 223.46480235 150.2080785 223.46480235 150.21594971 224.82433933 C150.18139617 230.86938508 150.18139617 230.86938508 147.953125 233.09765625 C145.05631716 233.85983557 142.19648579 234.52001027 139.265625 235.12109375 C138.38370987 235.30745392 137.50179474 235.49381409 136.59315491 235.68582153 C133.7149297 236.29038917 130.83432153 236.88242301 127.953125 237.47265625 C126.97793915 237.67463623 126.0027533 237.87661621 124.99801636 238.0847168 C39.05985527 255.86203301 39.05985527 255.86203301 8.09765625 238.49609375 C-5.89868802 229.2216629 -13.41463278 214.71045643 -16.88476562 198.56958008 C-22.20848151 171.34686932 -21.21073092 142.94486936 -21.24706364 115.32925463 C-21.25005181 113.16163304 -21.25416411 110.99401608 -21.25856781 108.82639694 C-21.27209314 102.00331429 -21.28184577 95.18024289 -21.2857697 88.35714781 C-21.29029138 80.54796392 -21.30808893 72.73895145 -21.3367703 64.9298197 C-21.358388 58.82896026 -21.36847311 52.72814931 -21.36981082 46.62725198 C-21.37085365 43.00730866 -21.3766564 39.38752996 -21.39463043 35.76762772 C-21.41418643 31.75594707 -21.40982209 27.7446332 -21.40332031 23.73291016 C-21.4125351 22.55063843 -21.42174988 21.3683667 -21.4312439 20.15026855 C-21.40024733 14.05459472 -21.16874434 9.41093588 -18.046875 4.09765625 C-12.13644839 0.32504352 -6.86136095 -0.04753883 0 0 Z " fill="#ffff" transform="translate(1312.046875,1307.90234375)"/>
<path d="M0 0 C0.83479889 0.01597229 1.66959778 0.03194458 2.5296936 0.04840088 C4.92048252 0.10013465 7.30934402 0.17446435 9.69921875 0.2578125 C10.42325897 0.27376465 11.14729919 0.2897168 11.89328003 0.30615234 C16.8256427 0.52193997 16.8256427 0.52193997 19.15942383 2.21435547 C25.00266751 10.62971509 27.31112731 18.6096987 26.3125 28.875 C25.29138701 33.97433866 23.9566442 38.94256739 22.3125 43.875 C18.12514168 43.40973796 14.14714042 42.83729413 10.0625 41.8125 C-5.57423089 38.61737852 -21.14295583 40.75448556 -35.62890625 47.10546875 C-37.6875 47.875 -37.6875 47.875 -40.6875 47.875 C-40.68406334 49.09629105 -40.68406334 49.09629105 -40.68055725 50.34225464 C-40.60634299 81.99296065 -40.81926887 113.64198254 -41.04331434 145.29167771 C-41.09884658 153.13969966 -41.1507376 160.98773431 -41.19949192 168.83580124 C-41.23807865 175.01013543 -41.28001293 181.18444153 -41.32437855 187.35873687 C-41.35049024 191.00237416 -41.37532553 194.6460075 -41.39657402 198.28967667 C-41.49040773 214.1745373 -41.7489465 230.01484609 -42.6875 245.875 C-47.75509272 246.57143427 -52.8229838 247.2655698 -57.89135742 247.95629883 C-59.61087917 248.19109361 -61.33028346 248.42675044 -63.04956055 248.66333008 C-65.53923672 249.0057601 -68.0293371 249.34495349 -70.51953125 249.68359375 C-71.64836479 249.83990517 -71.64836479 249.83990517 -72.80000305 249.99937439 C-78.74805131 250.80346007 -84.70733466 251.3674612 -90.6875 251.875 C-90.71884052 234.72917535 -90.73873012 217.58334959 -90.75 200.4375 C-90.75085602 199.14459171 -90.75171204 197.85168343 -90.75259399 196.5195961 C-90.77698357 154.69793558 -90.58743142 112.88235598 -90.1875 71.0625 C-90.17554218 69.81142078 -90.16358437 68.56034157 -90.15126419 67.27135086 C-90.00581115 52.13913648 -89.85151206 37.00702436 -89.6875 21.875 C-87.16469824 20.60679402 -84.64115896 19.34009307 -82.1171875 18.07421875 C-81.41166748 17.71936401 -80.70614746 17.36450928 -79.97924805 16.99890137 C-54.02199831 3.99038905 -28.89784937 -0.66663066 0 0 Z " fill="#ffff" transform="translate(1792.6875,1303.125)"/>
</svg>
